<?xml version="1.0" encoding="UTF-8"?>
<!-- Generator: Adobe Illustrator 18.0.0, SVG Export Plug-In . SVG Version: 6.00 Build 0)  -->
<!DOCTYPE svg PUBLIC "-//W3C//DTD SVG 1.1//EN" "http://www.w3.org/Graphics/SVG/1.1/DTD/svg11.dtd">
<svg version="1.1" xmlns="http://www.w3.org/2000/svg" xmlns:xlink="http://www.w3.org/1999/xlink" x="0px" y="0px" viewBox="0 0 242 47" enable-background="new 0 0 242 47" xml:space="preserve">
<symbol id="business" viewBox="-14.336 -12.83 28.672 25.66">
	<path fill="#FFFFFF" d="M7.271,7.247v5.583H-7.271V7.247h-7.064V-12.83h28.672V7.247H7.271z M-12.518-11.082v3.583l3.582-3.583   H-12.518z M-12.518,1.996v3.583l3.582-0.001L-12.518,1.996z M5.522,7.247H-5.522v3.583H5.522V7.247z M12.336-11.081L8.754-11.08   l3.582,3.582V-11.081z M12.336,1.997L8.754,5.58h3.582V1.997z"/>
</symbol>
<g id="guides">
</g>
<g id="color_palettes">
</g>
<g id="Layer_8">
	<g>
		<g>
			<path fill="#636667" d="M193.226,22.019c0-0.823,0.635-1.458,1.458-1.458h5.032c3.856,0,6.254,2.187,6.254,5.502v0.047     c0,3.692-2.962,5.62-6.583,5.62h-3.269v3.973c0,0.8-0.634,1.435-1.434,1.435c-0.823,0-1.458-0.635-1.458-1.435V22.019z      M199.48,29.12c2.187,0,3.551-1.223,3.551-2.939v-0.047c0-1.928-1.387-2.939-3.551-2.939h-3.363v5.925H199.48z"/>
			<path fill="#636667" d="M208.343,22.019c0-0.823,0.634-1.458,1.458-1.458h5.878c2.069,0,3.692,0.611,4.749,1.646     c0.87,0.893,1.364,2.116,1.364,3.551v0.047c0,2.634-1.528,4.232-3.739,4.915l3.151,3.973c0.282,0.353,0.47,0.659,0.47,1.105     c0,0.8-0.682,1.34-1.387,1.34c-0.659,0-1.082-0.306-1.411-0.752l-3.997-5.102h-3.645v4.42c0,0.8-0.635,1.435-1.435,1.435     c-0.823,0-1.458-0.635-1.458-1.435V22.019z M215.467,28.721c2.069,0,3.386-1.082,3.386-2.751v-0.047     c0-1.763-1.269-2.727-3.409-2.727h-4.209v5.525H215.467z"/>
			<path fill="#636667" d="M223.789,28.838v-0.047c0-4.632,3.574-8.511,8.629-8.511S241,24.112,241,28.744v0.047     c0,4.633-3.574,8.512-8.629,8.512S223.789,33.47,223.789,28.838z M237.967,28.838v-0.047c0-3.197-2.328-5.855-5.596-5.855     s-5.549,2.61-5.549,5.808v0.047c0,3.198,2.328,5.832,5.596,5.832C235.686,34.622,237.967,32.036,237.967,28.838z"/>
		</g>
		<g>
			<path fill="#929497" d="M149.244,28.427v-3.588c0-2.306,0.901-4.29,2.703-5.952c1.8-1.658,3.982-2.49,6.541-2.49     c2.393,0,4.44,0.758,6.14,2.27c1.706,1.513,2.557,3.412,2.557,5.702c0,0.838-0.108,1.527-0.319,2.07     c-0.21,0.545-0.533,0.926-0.97,1.149c-0.437,0.222-0.837,0.362-1.203,0.418c-0.365,0.055-0.845,0.084-1.435,0.084h-8.57v0.632     c0,1.21,0.451,2.19,1.353,2.935c0.899,0.744,2.095,1.116,3.588,1.116c1.068,0,2.124-0.266,3.165-0.8     c1.042-0.534,1.716-0.8,2.027-0.8c0.59,0,1.082,0.272,1.477,0.821c0.392,0.548,0.59,1.076,0.59,1.584     c0,0.785-0.712,1.569-2.131,2.342c-1.422,0.773-3.188,1.161-5.298,1.161c-3.011,0-5.466-0.795-7.365-2.387     C150.195,33.107,149.244,31.014,149.244,28.427z M154.689,24.881h6.165c0.447,0,0.764-0.071,0.949-0.216     c0.182-0.144,0.276-0.425,0.276-0.849c0-0.918-0.361-1.666-1.077-2.243c-0.716-0.579-1.597-0.869-2.637-0.869     c-0.985,0-1.845,0.282-2.578,0.846c-0.729,0.567-1.097,1.308-1.097,2.228V24.881z"/>
			<path fill="#929497" d="M167.97,33.451c0-0.508,0.188-1.036,0.558-1.582c0.369-0.551,0.798-0.823,1.279-0.823     c0.314,0,0.705,0.14,1.177,0.421c0.47,0.285,1.086,0.571,1.856,0.866c0.769,0.295,1.682,0.441,2.735,0.441     c2.077,0,3.117-0.588,3.117-1.766c0-0.655-0.344-1.176-1.033-1.559c-0.69-0.383-1.522-0.698-2.491-0.946     c-0.971-0.245-1.948-0.539-2.935-0.88c-0.985-0.344-1.822-0.92-2.511-1.725c-0.69-0.808-1.034-1.841-1.034-3.1     c0-1.748,0.606-3.25,1.816-4.51c1.21-1.259,3.124-1.891,5.74-1.891c1.745,0,3.3,0.268,4.665,0.803     c1.366,0.537,2.047,1.183,2.047,1.942c0,0.478-0.19,1.034-0.571,1.668c-0.38,0.634-0.853,0.949-1.414,0.949     c-0.226,0-0.836-0.176-1.834-0.525c-1-0.352-1.935-0.529-2.808-0.529c-0.958,0-1.689,0.192-2.195,0.576     c-0.506,0.379-0.762,0.806-0.762,1.271c0,0.467,0.256,0.85,0.762,1.149c0.506,0.302,1.132,0.537,1.876,0.698     c0.748,0.165,1.547,0.391,2.404,0.677c0.854,0.289,1.648,0.623,2.377,1.006c0.732,0.386,1.346,0.98,1.842,1.788     c0.496,0.807,0.744,1.786,0.744,2.935c0,1.951-0.682,3.483-2.045,4.601c-1.366,1.116-3.272,1.675-5.72,1.675     c-2.111,0-3.912-0.365-5.403-1.097C168.716,35.251,167.97,34.408,167.97,33.451z"/>
			<g>
				<path fill="#929497" d="M94.836,35.527c1.511,1.018,3.184,1.532,4.998,1.532c2.519,0,4.721-0.9,6.551-2.678      c1.969-1.946,2.969-4.512,2.969-7.632c0-3.071-0.998-5.626-2.964-7.592c-1.803-1.803-4.003-2.718-6.539-2.718      c-1.913,0-3.666,0.567-5.236,1.687c-0.125-0.279-0.302-0.535-0.529-0.762c-0.983-0.98-2.712-0.98-3.69,0      c-0.489,0.489-0.75,1.12-0.75,1.829v24.158v0.203c0,0.429,0.249,0.809,0.743,1.145c0.497,0.337,1.108,0.503,1.833,0.503      c0.697,0,1.308-0.175,1.832-0.52c0.523-0.349,0.783-0.723,0.783-1.124L94.836,35.527z M103.805,29.143      c-0.748,2.003-2.15,2.937-4.409,2.937c-1.722,0-3.218-0.665-4.56-2.035v-6.591c1.343-1.37,2.838-2.037,4.56-2.037      c1.465,0,2.59,0.42,3.42,1.267c0.907,0.968,1.348,2.297,1.348,4.066C104.164,27.665,104.042,28.474,103.805,29.143z"/>
				<g>
					<path fill="#929497" d="M125.318,18.947c-1.504-1.664-3.622-2.507-6.292-2.507c-2.235,0-4.425,0.454-6.505,1.346       c-1.322,0.561-1.518,1.542-1.518,2.074c0,0.796,0.234,1.425,0.695,1.864c0.734,0.699,1.526,0.743,2.36,0.523       c3.42-1.093,6.144-1.009,7.27-0.034c0.433,0.374,0.693,1.006,0.784,1.889h-3.225c-2.859,0-5.118,0.611-6.713,1.816       c-1.569,1.176-2.365,2.818-2.365,4.874c0,1.885,0.681,3.439,2.028,4.615c1.258,1.097,2.838,1.652,4.695,1.652       c1.796,0,3.317-0.324,4.522-0.959c0.392-0.205,0.753-0.424,1.094-0.643c0.026,0.399,0.27,0.757,0.738,1.073       c0.496,0.335,1.105,0.501,1.831,0.501c0.696,0,1.307-0.175,1.831-0.521c0.523-0.345,0.783-0.723,0.783-1.123v-1.082V24.36       C127.332,22.211,126.652,20.387,125.318,18.947z M120.31,31.578c-0.805,0.457-1.65,0.68-2.584,0.68       c-2.731,0-2.731-1.227-2.731-1.817c0-0.617,0.237-0.975,0.819-1.238c0.804-0.361,1.979-0.545,3.492-0.545h2.836v1.56       C121.647,30.712,121.031,31.17,120.31,31.578z"/>
				</g>
				<path fill="#929497" d="M143.503,17.396c-0.209,0.215-0.376,0.454-0.496,0.715c-1.526-1.11-3.258-1.671-5.17-1.671      c-2.536,0-4.722,0.849-6.492,2.514c-2.055,1.901-3.096,4.462-3.096,7.62s1.042,5.721,3.088,7.613      c1.776,1.674,3.933,2.522,6.413,2.522c1.856,0,3.534-0.505,5.016-1.504v0.192c0,3.275-1.354,5.729-4.383,5.729      c-1.921,0-3.722-0.415-5.429-1.262c-0.352-0.142-0.743-0.214-1.162-0.214c-0.404,0-1.008,0.139-1.586,0.792      c-0.435,0.489-0.656,1.097-0.656,1.801c0,0.8,0.394,1.484,1.147,1.943c2.341,1.296,5.033,1.952,8.003,1.952      c2.928,0,5.233-0.908,6.855-2.7c1.591-1.763,2.401-5.285,2.401-8.499V19.229c0-0.707-0.265-1.345-0.768-1.847      C146.178,16.375,144.475,16.382,143.503,17.396z M142.765,29.786c-1.368,1.336-2.735,2.014-4.067,2.014      c-0.914,0-1.689-0.112-2.3-0.327c-2.02-0.727-2.961-2.283-2.961-4.9c0-1.793,0.46-3.095,1.397-3.974      c0.438-0.4,0.963-0.71,1.56-0.922c0.617-0.218,1.392-0.328,2.304-0.328c0.848,0,1.594,0.209,2.284,0.638      c0.653,0.409,1.25,0.871,1.783,1.38V29.786z"/>
				<g>
					<path fill="#929497" d="M183.948,14.958h-0.533v1.511h-0.517v-1.511h-0.527v-0.394h1.577V14.958z M185.45,15.721l0.43-1.156       h0.707v1.905h-0.491v-1.299h-0.009l-0.453,1.299h-0.374l-0.454-1.299h-0.009v1.299h-0.489v-1.905h0.707L185.45,15.721z"/>
				</g>
				<g>
					<path fill="#929497" d="M1,17.996c0-0.617,0.394-1.145,1.182-1.582c0.787-0.436,1.578-0.652,2.362-0.652       c0.818,0,1.339,0.294,1.563,0.884l4.221,11.989l3.164-10.426c0.228-0.731,0.845-1.098,1.859-1.098       c1.013,0,1.631,0.367,1.859,1.098l3.122,10.468l9.949-26.928c0.226-0.593,0.746-0.887,1.562-0.887       c0.76,0,2.375,0.644,3.164,1.094c0.788,0.451,1.181,0.985,1.181,1.604c0,0.31-0.057,0.563-0.167,0.762l-13.03,31.191       c-0.253,0.647-0.97,0.973-2.154,0.973c-1.237,0-1.984-0.327-2.238-0.971l-3.248-9.205l-3.208,9.16       c-0.255,0.674-1.028,1.015-2.321,1.015c-1.155,0-1.858-0.341-2.109-1.015L1.211,18.799C1.071,18.517,1,18.251,1,17.996z"/>
					<g>
						<path fill="#929497" d="M31.977,17.475l3.827-9.144c0.324-0.855,0.699-0.796,0.699-0.796c0.44,0.041,0.422,0.871,0.422,0.871        v11.018c0.42-0.909,1.098-1.674,2.025-2.297c0.93-0.626,2.028-0.939,3.294-0.939c1.942,0,3.637,0.844,5.086,2.533        c1.447,1.687,2.173,3.7,2.173,6.036V34.76c0,0.534-0.273,0.955-0.822,1.266c-0.549,0.31-1.189,0.464-1.92,0.464        c-0.706,0-1.33-0.155-1.88-0.464c-0.548-0.307-0.822-0.728-0.822-1.261v-9.976c0-0.954-0.367-1.828-1.097-2.611        C42.229,21.392,41.372,21,40.386,21c-0.928,0-1.737,0.352-2.426,1.051c-0.688,0.703-1.035,1.614-1.035,2.738v9.976        c0,0.42-0.274,0.815-0.823,1.178c-0.547,0.366-1.19,0.547-1.921,0.547c-0.76,0-1.401-0.176-1.92-0.527        c-0.521-0.35-0.781-0.752-0.781-1.203v-15.12C31.481,19.639,31.501,18.569,31.977,17.475z"/>
					</g>
				</g>
				<path fill="#929497" d="M51.549,34.76V18.127c0-0.504,0.243-0.913,0.729-1.22c0.486-0.311,1.111-0.467,1.865-0.467      c0.76,0,1.387,0.156,1.89,0.467c0.499,0.307,0.749,0.716,0.749,1.22V34.76c0,0.421-0.264,0.815-0.792,1.181      c-0.527,0.369-1.141,0.55-1.847,0.55c-0.729,0-1.343-0.177-1.845-0.527C51.799,35.611,51.549,35.211,51.549,34.76z"/>
				<path fill="#929497" d="M59.081,29.731V9.498c0-0.474,0.281-0.869,0.844-1.19c0.564-0.318,1.183-0.479,1.858-0.479      c0.731,0,1.374,0.153,1.92,0.467c0.549,0.312,0.825,0.699,0.825,1.157v6.986h4.98c0.421,0,0.76,0.215,1.013,0.643      c0.252,0.425,0.38,0.93,0.38,1.51c0,0.581-0.128,1.086-0.38,1.511c-0.253,0.428-0.592,0.642-1.013,0.642h-4.98v8.801      c0,0.777,0.174,1.33,0.527,1.65c0.352,0.319,0.964,0.48,1.837,0.48h1.646c0.729,0,1.301,0.236,1.708,0.707      c0.408,0.471,0.614,1.03,0.614,1.678c0,0.68-0.206,1.25-0.614,1.721c-0.407,0.47-0.979,0.707-1.708,0.707h-1.646      C61.684,36.49,59.081,34.236,59.081,29.731z"/>
				<path fill="#929497" d="M70.602,28.218V24.63c0-2.309,0.901-4.293,2.703-5.952c1.801-1.66,3.982-2.491,6.541-2.491      c2.392,0,4.44,0.758,6.144,2.27c1.699,1.511,2.552,3.411,2.552,5.7c0,0.84-0.104,1.527-0.316,2.07      c-0.212,0.546-0.537,0.928-0.971,1.151c-0.436,0.224-0.838,0.362-1.203,0.418c-0.366,0.056-0.846,0.083-1.436,0.083h-8.57v0.638      c0,1.204,0.451,2.184,1.352,2.931c0.899,0.744,2.094,1.116,3.588,1.116c1.069,0,2.125-0.266,3.164-0.8      c1.041-0.537,1.717-0.802,2.026-0.802c0.592,0,1.084,0.272,1.478,0.823c0.395,0.548,0.59,1.076,0.59,1.585      c0,0.786-0.708,1.568-2.132,2.339c-1.42,0.775-3.184,1.162-5.295,1.162c-3.012,0-5.467-0.798-7.367-2.387      C71.551,32.896,70.602,30.807,70.602,28.218z M76.047,24.672h6.163c0.451,0,0.767-0.072,0.951-0.218      c0.182-0.144,0.275-0.425,0.275-0.846c0-0.921-0.36-1.671-1.077-2.247c-0.718-0.579-1.597-0.867-2.638-0.867      c-0.984,0-1.843,0.282-2.575,0.846c-0.732,0.565-1.098,1.308-1.098,2.228V24.672z"/>
				<circle fill="#929497" cx="54.165" cy="10.445" r="2.616"/>
			</g>
		</g>
	</g>
</g>
</svg>